<!-- icon666.com - MILLIONS OF FREE VECTOR ICONS --><svg version="1.1" id="Capa_1" xmlns="http://www.w3.org/2000/svg" xmlns:xlink="http://www.w3.org/1999/xlink" x="0px" y="0px" viewBox="0 0 440.894 440.894" style="enable-background:new 0 0 440.894 440.894;" xml:space="preserve"><g><path style="fill:#FF6666;" d="M171.519,81.57c2.328-17.066,1.319-30.219-0.846-39.996c-4.121-0.607-11.872-1.566-21.248-1.856 c4.32,8.28,9.877,22.786,10.635,43.534c0.326,8.919,2.88,19.055,16.417,25.669C171.739,101.407,170.064,92.237,171.519,81.57z"></path><path style="fill:#FF6666;" d="M253.747,106.586c5.13-5.929,7.055-13.891,5.721-23.664c-3.532-25.885,0.011-43.805,4.44-55.257 c-3.701,2.731-7.786,6.296-11.852,10.896c-16.543,18.723-25.675,46.518-26.541,80.624 C232.77,118.304,246.035,115.5,253.747,106.586z"></path><path style="fill:#FF6666;" d="M280.834,83.252c0.761-20.75,6.316-35.256,10.636-43.535c-9.392,0.288-17.133,1.247-21.249,1.855 c-2.164,9.775-3.174,22.93-0.845,39.998c1.457,10.673-0.223,19.848-4.968,27.364C277.965,102.322,280.508,92.175,280.834,83.252z"></path><path style="fill:#669933;" d="M190.669,184.826l17.509,11.191c-2.21-3.597-4.95-7.521-8.289-11.425 c-13.89-16.233-31.512-24.974-52.437-26.02c3.924,12.704,17.015,41.568,55.406,45.913l-17.574-11.232 c-2.327-1.487-3.008-4.579-1.52-6.905C185.251,184.018,188.343,183.338,190.669,184.826z"></path><path style="fill:#669933;" d="M257.132,186.346c1.487,2.326,0.807,5.418-1.521,6.905l-17.591,11.242 c19.342-2.159,34.543-10.744,45.252-25.641c5.481-7.624,8.531-15.239,10.123-20.276c-32.713,1.707-51.354,22.441-60.618,37.4 l17.449-11.151C252.556,183.339,255.646,184.02,257.132,186.346z"></path><path style="fill:#FFCC66;" d="M300.305,285.51H140.582c-5.973,0-10.831,4.859-10.831,10.832c0,5.973,4.858,10.832,10.831,10.832 h159.723c5.973,0,10.832-4.859,10.832-10.832C311.137,290.37,306.278,285.51,300.305,285.51z"></path><polygon style="fill:#CC9933;" points="158.158,413.42 282.74,413.42 293.876,317.175 147.019,317.175 "></polygon><path style="fill:#FF6666;" d="M177,27.703c4.423,11.453,7.955,29.362,4.427,55.219c-1.336,9.79,0.597,17.761,5.746,23.693 c7.757,8.938,20.978,11.719,28.208,12.583C214.029,64.657,192.214,39.008,177,27.703z"></path><path style="fill:#CC6633;" d="M245.699,30.688c-3.738-5.175-12.477-15.531-25.251-20.368 c-12.769,4.834-21.509,15.188-25.252,20.368c0.214,0.232,19.294,21.061,25.246,49.643 C228.368,48.398,245.485,30.921,245.699,30.688z"></path><path style="fill:#CC9933;" d="M286.686,423.42H154.21c-2.062,0-3.738,1.677-3.738,3.737c0,2.06,1.677,3.737,3.738,3.737h132.476 c2.06,0,3.736-1.677,3.736-3.737C290.422,425.096,288.746,423.42,286.686,423.42z"></path><path style="fill:#663333;" d="M300.308,275.51h-74.861v-60.499c37.401,0,55.987-16.468,65.946-30.32 c10.723-14.917,13.298-29.754,13.402-30.379c0.239-1.431-0.155-2.895-1.08-4.012c-0.925-1.118-2.289-1.778-3.739-1.812 c-33.704-0.757-54.98,15.941-66.827,29.904c-3,3.536-5.548,7.062-7.702,10.392v-59.518c4.596-0.474,11.774-1.655,19.045-4.601 c30.312-4.086,45.477-17.516,46.337-41.049c1.105-30.173,13.41-45.623,13.521-45.758c1.225-1.478,1.495-3.525,0.697-5.271 c-0.798-1.745-2.524-2.88-4.442-2.92c-11.006-0.229-20.747,0.604-27.227,1.388c3.382-8.662,7.134-12.544,7.2-12.611 c1.656-1.596,2.011-4.114,0.859-6.104c-1.152-1.991-3.515-2.939-5.721-2.298c-0.522,0.151-10.816,3.239-22.772,13.591 c-5.048-6.727-15.509-18.253-30.916-23.386l-0.006,0.018c-0.991-0.331-2.087-0.372-3.154-0.018 c-15.415,5.135-25.868,16.661-30.914,23.388c-11.957-10.354-22.253-13.441-22.775-13.593c-2.192-0.636-4.521,0.309-5.682,2.275 c-1.161,1.966-0.827,4.484,0.789,6.097c0.081,0.081,3.843,3.972,7.229,12.639c-6.479-0.784-16.22-1.617-27.225-1.385 c-1.918,0.04-3.645,1.175-4.442,2.92c-0.799,1.746-0.527,3.794,0.698,5.271c0.124,0.149,12.408,15.299,13.521,45.758 c0.863,23.535,16.029,36.966,46.344,41.052c7.268,2.943,14.442,4.124,19.037,4.598v59.518c-2.154-3.33-4.702-6.855-7.702-10.392 c-11.583-13.653-32.195-29.929-64.607-29.929c-0.737,0-4.143-0.467-5.958,1.836c-0.897,1.139-1.319,2.581-1.08,4.012 c0.104,0.625,2.68,15.462,13.402,30.378c9.958,13.852,28.332,30.321,65.945,30.321v60.499h-74.861 c-11.486,0-20.831,9.345-20.831,20.832c0,10.233,7.42,18.745,17.157,20.487l11.339,97.969c-4.595,2.226-7.778,6.921-7.778,12.358 c0,7.575,6.163,13.737,13.738,13.737h132.476c7.574,0,13.736-6.162,13.736-13.737c0-5.438-3.183-10.132-7.775-12.357l11.337-97.97 c9.736-1.743,17.156-10.256,17.156-20.487C321.14,284.855,311.794,275.51,300.308,275.51z M293.396,158.577 c-1.592,5.037-4.642,12.652-10.123,20.276c-10.709,14.896-25.91,23.481-45.252,25.641l17.591-11.242 c2.327-1.487,3.008-4.579,1.521-6.905c-1.486-2.326-4.576-3.008-6.905-1.521l-17.449,11.151 C242.042,181.018,260.683,160.284,293.396,158.577z M185.285,193.252l17.574,11.232c-38.392-4.345-51.482-33.209-55.406-45.913 c20.925,1.047,38.547,9.787,52.437,26.02c3.339,3.903,6.079,7.828,8.289,11.425l-17.509-11.191 c-2.326-1.488-5.418-0.808-6.905,1.521C182.277,188.673,182.957,191.764,185.285,193.252z M269.376,81.57 c-2.329-17.068-1.319-30.223,0.845-39.998c4.116-0.608,11.857-1.567,21.249-1.855c-4.319,8.279-9.875,22.785-10.636,43.535 c-0.326,8.924-2.869,19.07-16.426,25.683C269.154,101.418,270.833,92.243,269.376,81.57z M252.057,38.561 c4.065-4.601,8.15-8.166,11.852-10.896c-4.43,11.452-7.973,29.372-4.44,55.257c1.334,9.773-0.591,17.735-5.721,23.664 c-7.713,8.914-20.978,11.719-28.232,12.6C226.382,85.079,235.514,57.284,252.057,38.561z M160.06,83.252 c-0.758-20.748-6.314-35.254-10.635-43.534c9.376,0.29,17.127,1.249,21.248,1.856c2.165,9.777,3.174,22.93,0.846,39.996 c-1.455,10.667,0.22,19.837,4.958,27.351C162.94,102.306,160.386,92.171,160.06,83.252z M187.173,106.615 c-5.15-5.933-7.082-13.903-5.746-23.693c3.528-25.856-0.004-43.766-4.427-55.219c15.214,11.305,37.028,36.954,38.381,91.495 C208.151,118.334,194.93,115.552,187.173,106.615z M195.196,30.688c3.743-5.18,12.483-15.534,25.252-20.368 c12.774,4.837,21.513,15.193,25.251,20.368c-0.214,0.232-17.331,17.71-25.257,49.643C214.49,51.749,195.41,30.921,195.196,30.688z M286.686,430.894H154.21c-2.062,0-3.738-1.677-3.738-3.737c0-2.061,1.677-3.737,3.738-3.737h132.476 c2.06,0,3.736,1.677,3.736,3.737C290.422,429.217,288.746,430.894,286.686,430.894z M282.74,413.42H158.158l-11.139-96.245h146.857 L282.74,413.42z M300.308,307.175H140.585c-5.973,0-10.831-4.859-10.831-10.832c0-5.973,4.858-10.832,10.831-10.832h159.723 c5.973,0,10.832,4.859,10.832,10.832C311.14,302.315,306.281,307.175,300.308,307.175z"></path></g></svg>